<?xml version="1.0" encoding="UTF-8"?>
<svg id="uuid-c8701ef0-51ad-4e6d-ac16-02317a4611d9" data-name="Layer 1" xmlns="http://www.w3.org/2000/svg" width="16" height="16" viewBox="0 0 16 16">
  <rect y=".000000000001819" width="16" height="16" rx="2" ry="2"/>
  <rect x="1" y="1" width="14" height="10" rx="1" ry="1" fill="#30a0fb"/>
  <rect x="4" width="8" height="12" transform="translate(14 -2) rotate(90)" fill="#89cbfa"/>
  <path d="M5.724986740480745,6h-.882352941176578c0-1.656856761259405,1.343143238742414-3,3-3s3,1.343143238740595,3,3h-.882352941176578c0-1.169548483455401-.948098575367112-2.117647058824332-2.117647058823422-2.117647058824332s-2.117647058823422.948098575368931-2.117647058823422,2.117647058824332ZM7.842633799304167,8.117647058823422c1.16954848345631,0,2.117647058823422-.948098575368022,2.117647058823422-2.117647058823422h-4.235294117646845c0,1.169548483455401.948098575367112,2.117647058823422,2.117647058823422,2.117647058823422Z" fill="#69b6f7"/>
  <path d="M10.842633799304167,6c0,1.656856761259405-1.343143238742414,3-3,3s-3-1.343143238740595-3-3h.882352941176578c0,1.169548483455401.948098575367112,2.117647058823422,2.117647058823422,2.117647058823422s2.117647058823422-.948098575368022,2.117647058823422-2.117647058823422h.882352941176578ZM7.842633799304167,3.882352941175668c-1.16954848345631,0-2.117647058823422.948098575368931-2.117647058823422,2.117647058824332h4.235294117646845c0-1.169548483455401-.948098575367112-2.117647058824332-2.117647058823422-2.117647058824332Z" fill="#a9e0fd"/>
  <polygon points="8 13.860918788142953 7 13 7 12 9 12 9 13 8 13.860918788142953" fill="#fa0"/>
  <rect x="6" y="14" width="1" height="1" fill="#666"/>
  <rect x="4" y="13" width="1" height="2" fill="#666"/>
  <rect x="2" y="14" width="1" height="1" fill="#666"/>
  <rect x="9" y="14" width="1" height="1" fill="#666"/>
  <rect x="11" y="13" width="1" height="2" fill="#666"/>
  <rect x="13" y="14" width="1" height="1" fill="#666"/>
</svg>