<?xml version="1.0" encoding="UTF-8"?>
<svg id="uuid-f308c4c3-6b6f-4252-9763-7e736fc267ab" data-name="Layer 1" xmlns="http://www.w3.org/2000/svg" width="32" height="32" viewBox="0 0 32 32">
  <rect y=".000000000001819" width="32" height="32" rx="4" ry="4"/>
  <rect x="2" y="1.999999999998181" width="28" height="20" rx="2" ry="2" fill="#30a0fb"/>
  <rect x="8" y="-.000000000001819" width="16" height="24" transform="translate(27.999999999998181 -4.000000000001819) rotate(90)" fill="#89cbfa"/>
  <path d="M11.449973480961489,11.999999999998181h-1.764705882353155c0-3.31371352251881,2.686286477484828-6,6-6s6,2.68628647748119,6,6h-1.764705882353155c0-2.339096966910802-1.896197150734224-4.235294117648664-4.235294117646845-4.235294117648664s-4.235294117646845,1.896197150737862-4.235294117646845,4.235294117648664ZM15.685267598608334,16.235294117645026c2.339096966912621,0,4.235294117646845-1.896197150736043,4.235294117646845-4.235294117646845h-8.47058823529369c0,2.339096966910802,1.896197150734224,4.235294117646845,4.235294117646845,4.235294117646845Z" fill="#69b6f7"/>
  <path d="M21.685267598608334,11.999999999998181c0,3.31371352251881-2.686286477484828,6-6,6s-6-2.68628647748119-6-6h1.764705882353155c0,2.339096966910802,1.896197150734224,4.235294117646845,4.235294117646845,4.235294117646845s4.235294117646845-1.896197150736043,4.235294117646845-4.235294117646845h1.764705882353155ZM15.685267598608334,7.764705882349517c-2.339096966912621,0-4.235294117646845,1.896197150737862-4.235294117646845,4.235294117648664h8.47058823529369c0-2.339096966910802-1.896197150734224-4.235294117648664-4.235294117646845-4.235294117648664Z" fill="#a9e0fd"/>
  <polygon points="16 27.721837576284088 14 25.999999999998181 14 23.999999999998181 18 23.999999999998181 18 25.999999999998181 16 27.721837576284088" fill="#fa0"/>
  <rect x="12" y="27.999999999998181" width="2" height="2" fill="#666"/>
  <rect x="8" y="25.999999999998181" width="2" height="4" fill="#666"/>
  <rect x="4" y="27.999999999998181" width="2" height="2" fill="#666"/>
  <rect x="18" y="27.999999999998181" width="2" height="2" fill="#666"/>
  <rect x="22" y="25.999999999998181" width="2" height="4" fill="#666"/>
  <rect x="26" y="27.999999999998181" width="2" height="2" fill="#666"/>
</svg>