<?xml version="1.0" encoding="UTF-8"?>
<svg id="uuid-d70f25d5-6660-41ee-836d-5f3ec0a42b29" data-name="Layer 1" xmlns="http://www.w3.org/2000/svg" width="64" height="64" viewBox="0 0 64 64">
  <rect y=".000000000001819" width="64" height="64" rx="8" ry="8"/>
  <rect x="4" y="3.999999999994543" width="56" height="40" rx="4" ry="4" fill="#30a0fb"/>
  <rect x="16" y="-.000000000005457" width="32" height="48" transform="translate(55.999999999994543 -8.000000000005457) rotate(90)" fill="#89cbfa"/>
  <path d="M22.899946961922979,23.999999999994543h-3.52941176470631c0-6.627427045037621,5.372572954969655-12,12-12s12,5.372572954962379,12,12h-3.52941176470631c0-4.678193933821603-3.792394301468448-8.470588235297328-8.47058823529369-8.470588235297328s-8.47058823529369,3.792394301475724-8.47058823529369,8.470588235297328ZM31.370535197216668,32.470588235288233c4.678193933825241,0,8.47058823529369-3.792394301472086,8.47058823529369-8.47058823529369h-16.941176470587379c0,4.678193933821603,3.792394301468448,8.47058823529369,8.47058823529369,8.47058823529369Z" fill="#69b6f7"/>
  <path d="M43.370535197216668,23.999999999994543c0,6.627427045037621-5.372572954969655,12-12,12s-12-5.372572954962379-12-12h3.52941176470631c0,4.678193933821603,3.792394301468448,8.47058823529369,8.47058823529369,8.47058823529369s8.47058823529369-3.792394301472086,8.47058823529369-8.47058823529369h3.52941176470631ZM31.370535197216668,15.529411764697215c-4.678193933825241,0-8.47058823529369,3.792394301475724-8.47058823529369,8.470588235297328h16.941176470587379c0-4.678193933821603-3.792394301468448-8.470588235297328-8.47058823529369-8.470588235297328Z" fill="#a9e0fd"/>
  <polygon points="32 55.443675152566357 28 51.999999999994543 28 47.999999999994543 36 47.999999999994543 36 51.999999999994543 32 55.443675152566357" fill="#fa0"/>
  <rect x="24" y="55.999999999994543" width="4" height="4" fill="#666"/>
  <rect x="16" y="51.999999999994543" width="4" height="8" fill="#666"/>
  <rect x="8" y="55.999999999994543" width="4" height="4" fill="#666"/>
  <rect x="36" y="55.999999999994543" width="4" height="4" fill="#666"/>
  <rect x="44" y="51.999999999994543" width="4" height="8" fill="#666"/>
  <rect x="52" y="55.999999999994543" width="4" height="4" fill="#666"/>
</svg>