<?xml version="1.0" encoding="UTF-8"?>
<svg id="uuid-70d1d517-4698-4c91-ab69-a00ed05b0e7e" data-name="Layer 1" xmlns="http://www.w3.org/2000/svg" width="17" height="17" viewBox="0 0 17 17">
  <path d="M8.5,17C3.813220796131645,17,0,13.18717447916697,0,8.5S3.813220796131645,0,8.5,0s8.5,3.81282552083303,8.5,8.5-3.813220796131645,8.5-8.5,8.5ZM8.5,1.000000000000909C4.364514802631675,1.000000000000909,1,4.364514802632584,1,8.5s3.364514802631675,7.499999999999091,7.5,7.499999999999091,7.5-3.364514802631675,7.5-7.499999999999091S12.635485197368325,1.000000000000909,8.5,1.000000000000909Z" fill="#969696"/>
  <path d="M8.5,1.000000000002728v14.999999999998181c4.135485197368325,0,7.5-3.364514802630765,7.5-7.499999999999091,0-4.135485197367416-3.364514802631675-7.499999999999091-7.5-7.499999999999091Z" fill="#f5f5f5" opacity=".55"/>
  <path d="M8.500000000336513,1.000000000172804l-.000000000673026,14.999999999998181c-4.135485197368325-.000000000186446-7.499999999847205-3.364514802969097-7.499999999663487-7.500000000336513.000000000185537-4.135485197368325,3.364514802970007-7.499999999848114,7.500000000336513-7.499999999661668Z" fill="#1e1e1e" opacity=".46"/>
</svg>