<?xml version="1.0" encoding="UTF-8"?>
<svg id="uuid-82c65a3e-3e8a-4c24-a44c-cde7d24792e4" data-name="Layer 1" xmlns="http://www.w3.org/2000/svg" width="38" height="38.000000005806214" viewBox="0 0 38 38.000000005806214">
  <g>
    <path d="M25,2.999999994193786h-1.8577880859375l-.544189453125-1.6324462890625C22.3258056640625.550842279350036,21.5615234375-.000000005806214,20.70068359375-.000000005806214h-7.11700439453125C12.72283935546875-.000000005806214,11.95855712890625.550842279350036,11.68634033203125,1.367553705131286l-.54412841796875,1.6324462890625h-3.3316650390625c-.2913818359375-.59033203125-.893310546875-1-1.59625244140625-1h-1.4285888671875c-.70294189453125,0-1.30487060546875.40966796875-1.59625244140625,1h-.189453125c-1.6568603515625,0-3,1.3431396484375-3,3v14c0,1.6568603515625,1.3431396484375,3,3,3h22c1.6568603515625,0,3-1.3431396484375,3-3V5.999999994193786c0-1.6568603515625-1.3431396484375-3-3-3ZM27,19.999999994193786c0,1.102783203125-.89715576171875,2-2,2H3c-1.102783203125,0-2-.897216796875-2-2V5.999999994193786c0-1.102783203125.897216796875-2,2-2h8.8629150390625l.22796630859375-.68377685546875.54412841796875-1.6324462890625c.1363525390625-.40899658203125.517578125-.68377685546875.94866943359375-.68377685546875h7.11700439453125c.43109130859375,0,.81231689453125.2747802734375.94866943359375.68377685546875l.544189453125,1.6324462890625.2279052734375.68377685546875h2.57855224609375c1.10284423828125,0,2,.897216796875,2,2v14Z" fill="#969696"/>
    <path d="M16.96893310546875,5.521972650443786c-4.41827392578125,0-8,3.58172607421875-8,8s3.58172607421875,8,8,8,8-3.58172607421875,8-8-3.58172607421875-8-8-8ZM16.96893310546875,20.521972650443786c-3.85980224609375,0-7-3.14019775390625-7-7s3.14019775390625-7,7-7,7,3.14019775390625,7,7-3.14019775390625,7-7,7Z" fill="#969696"/>
    <path d="M16.96893310546875,8.021972650443786c-3.03753662109375,0-5.5,2.46240234375-5.5,5.5,0,3.03753662109375,2.46246337890625,5.5,5.5,5.5,3.03759765625,0,5.5-2.46246337890625,5.5-5.5,0-3.03759765625-2.46240234375-5.5-5.5-5.5ZM15.41339111328125,13.521972650443786c-.859130859375,0-1.5555419921875-.69647216796875-1.5555419921875-1.5555419921875,0-.859130859375.6964111328125-1.55560302734375,1.5555419921875-1.55560302734375s1.5555419921875.69647216796875,1.5555419921875,1.55560302734375c0,.85906982421875-.6964111328125,1.5555419921875-1.5555419921875,1.5555419921875Z" fill="#969696"/>
  </g>
  <g opacity=".5">
    <path d="M26.96893310546875,34.021972650443786c3.03759765625,0,5.5-2.46246337890625,5.5-5.5,0-2.84027099609375-2.15313720703125-5.17657470703125-4.9161376953125-5.46832275390625-.69482421875.5819091796875-1.57769775390625.94635009765625-2.55279541015625.94635009765625h-1.15789794921875c-1.4329833984375.9927978515625-2.3731689453125,2.64666748046875-2.3731689453125,4.52197265625,0,3.03753662109375,2.46246337890625,5.5,5.5,5.5ZM25.41339111328125,25.410827630912536c.859130859375,0,1.5555419921875.69647216796875,1.5555419921875,1.55560302734375,0,.85906982421875-.6964111328125,1.5555419921875-1.5555419921875,1.5555419921875s-1.5555419921875-.69647216796875-1.5555419921875-1.5555419921875c0-.859130859375.6964111328125-1.55560302734375,1.5555419921875-1.55560302734375Z" fill="#969696"/>
    <path d="M26.96893310546875,36.521972650443786c4.41827392578125,0,8-3.58172607421875,8-8,0-3.7432861328125-2.57452392578125-6.87701416015625-6.0469970703125-7.7498779296875-.06585693359375.33502197265625-.18231201171875.64886474609375-.32635498046875.94842529296875,3.07659912109375.7362060546875,5.37335205078125,3.50244140625,5.37335205078125,6.80145263671875,0,3.85980224609375-3.14019775390625,7-7,7s-7-3.14019775390625-7-7c0-1.7235107421875.62908935546875-3.3009033203125,1.66583251953125-4.52197265625h-1.26287841796875c-.8836669921875,1.28668212890625-1.4029541015625,2.8431396484375-1.4029541015625,4.52197265625,0,4.41827392578125,3.58172607421875,8,8,8Z" fill="#969696"/>
    <path d="M35,17.999999994193786h-1.8577880859375l-.544189453125-1.6324462890625c-.272216796875-.81671142578125-1.0364990234375-1.3675537109375-1.8973388671875-1.3675537109375h-1.70068359375v1h1.70068359375c.43109130859375,0,.81231689453125.2747802734375.94866943359375.68377685546875l.544189453125,1.6324462890625.2279052734375.68377685546875h2.57855224609375c1.10284423828125,0,2,.897216796875,2,2v14c0,1.102783203125-.89715576171875,2-2,2H13c-1.102783203125,0-2-.897216796875-2-2v-11h-1v11c0,1.6568603515625,1.3431396484375,3,3,3h22c1.6568603515625,0,3-1.3431396484375,3-3v-14c0-1.6568603515625-1.3431396484375-3-3-3Z" fill="#969696"/>
  </g>
  <circle cx="8.41339111328125" cy="6.521972650443786" r="1.5" fill="#f33"/>
</svg>