<?xml version="1.0" encoding="UTF-8"?>
<svg id="uuid-c1dce899-b4c6-44be-93a0-053984a166ba" data-name="Layer 1" xmlns="http://www.w3.org/2000/svg" width="38" height="38.000000003736204" viewBox="0 0 38 38.000000003736204">
  <g opacity=".5">
    <path d="M6.499999999999787,26.499999994194695h19v8.500000000000426c0,1.379787561234764-1.12021243876481,2.499999999999574-2.499999999999574,2.499999999999574h-14.000000000001137c-1.379787561234608,0-2.499999999999289-1.120212438764682-2.499999999999289-2.499999999999289v-8.500000000000711h0Z" transform="translate(31.999999998565162 63.999999989106598) rotate(-180)" fill="none" stroke="#969696" stroke-linecap="round" stroke-linejoin="round" stroke-width=".5"/>
    <rect x="9.5" y="27.999999993902748" width="3" height="7" rx=".999999999999484" ry=".999999999999484" fill="#969696"/>
    <path d="M33.5-.000000005806214v22c0,1.380711874577173-1.119288125422827,2.5-2.5,2.5H7c-1.380711874577173,0-2.5-1.119288125422827-2.5-2.5V-.000000005806214" fill="none" stroke="#969696" stroke-miterlimit="10" stroke-width=".5"/>
  </g>
  <g>
    <path d="M27.25,5.624999994193786h-1.39337158203125l-.4080810546875-1.224365234375c-.2042236328125-.61248779296875-.77740478515625-1.025634765625-1.42303466796875-1.025634765625h-5.3377685546875c-.6456298828125,0-1.21881103515625.41314697265625-1.4229736328125,1.025634765625l-.40814208984375,1.224365234375h-2.50762939453125c-.21942138671875-.440185546875-.6629638671875-.75-1.18829345703125-.75h-1.0714111328125c-.52532958984375,0-.9688720703125.309814453125-1.18829345703125.75h-.1510009765625c-1.24261474609375,0-2.25,1.00732421875-2.25,2.25v10.5c0,1.24261474609375,1.00738525390625,2.25,2.25,2.25h16.5c1.24261474609375,0,2.25-1.00738525390625,2.25-2.25V7.874999994193786c0-1.24267578125-1.00738525390625-2.25-2.25-2.25ZM28.5,18.374999994193786c0,.689208984375-.56072998046875,1.25-1.25,1.25H10.75c-.68927001953125,0-1.25-.560791015625-1.25-1.25V7.874999994193786c0-.68927001953125.56072998046875-1.25,1.25-1.25h6.827392578125l.2279052734375-.68377685546875.40814208984375-1.224365234375c.06817626953125-.2044677734375.2587890625-.34185791015625.47430419921875-.34185791015625h5.3377685546875c.21551513671875,0,.40618896484375.13739013671875.47430419921875.34185791015625l.40814208984375,1.224365234375.2279052734375.68377685546875h2.1141357421875c.68927001953125,0,1.25.56072998046875,1.25,1.25v10.5Z" fill="#969696"/>
    <path d="M21.2266845703125,7.516479486381286c-3.313720703125,0-6,2.686279296875-6,6s2.686279296875,6,6,6,6-2.686279296875,6-6-2.686279296875-6-6-6ZM21.2266845703125,18.516479486381286c-2.75701904296875,0-5-2.24298095703125-5-5s2.24298095703125-5,5-5,5,2.24298095703125,5,5-2.24298095703125,5-5,5Z" fill="#969696"/>
    <path d="M21.2266845703125,9.391479486381286c-2.27813720703125,0-4.125,1.8468017578125-4.125,4.125,0,2.27813720703125,1.84686279296875,4.125,4.125,4.125,2.2781982421875,0,4.125-1.84686279296875,4.125-4.125,0-2.2781982421875-1.8468017578125-4.125-4.125-4.125ZM20.06005859375,13.516479486381286c-.64434814453125,0-1.16668701171875-.5223388671875-1.16668701171875-1.16668701171875s.5223388671875-1.16668701171875,1.16668701171875-1.16668701171875c.644287109375,0,1.1666259765625.5223388671875,1.1666259765625,1.16668701171875s-.5223388671875,1.16668701171875-1.1666259765625,1.16668701171875Z" fill="#969696"/>
  </g>
  <circle cx="14.81003511230665" cy="8.266484125131683" r="1.125" fill="#f33"/>
  <path d="M33.928573608398438.999999994193786c1.693588256835938,0,3.071426391601562,1.377838134765625,3.071426391601562,3.071430206298828v29.857143402099609c0,1.693588256835938-1.377838134765625,3.071426391601562-3.071426391601562,3.071426391601562H5.842788696289062l-4.842788696289062-4.842788696289062V4.071430200492614c0-1.693592071533203,1.377838134765625-3.071430206298828,3.071426391601562-3.071430206298828h29.857147216796875M33.928573608398438-.000000005806214H4.071426391601562C1.822837829589844-.000000005806214,0,1.822841638480895,0,4.071430200492614v28.499996185302734c2.119987487792969,2.119979858398438,3.30859375,3.308586120605469,5.428573608398438,5.428573608398438h28.5c2.248588562011719,0,4.071426391601562-1.822837829589844,4.071426391601562-4.071426391601562V4.071430200492614C38,1.822841638480895,36.177162170410156-.000000005806214,33.928573608398438-.000000005806214h0Z" fill="gray"/>
</svg>