<?xml version="1.0" encoding="UTF-8"?>
<svg id="uuid-d303ade3-4ef5-41f2-b732-2ef6aaace27c" data-name="Layer 1" xmlns="http://www.w3.org/2000/svg" width="38" height="38.000000003736204" viewBox="0 0 38 38.000000003736204">
  <g>
    <path d="M35,17.99999999418651h-1.8577880859375l-.544189453125-1.6324462890625c-.272216796875-.81671142578125-1.0364990234375-1.3675537109375-1.8973388671875-1.3675537109375h-7.11700439453125c-.86083984375,0-1.6251220703125.55084228515625-1.8973388671875,1.3675537109375l-.54412841796875,1.6324462890625h-3.3316650390625c-.2913818359375-.59033203125-.893310546875-1-1.59625244140625-1h-1.4285888671875c-.70294189453125,0-1.30487060546875.40966796875-1.59625244140625,1h-.189453125c-1.6568603515625,0-3,1.3431396484375-3,3v14c0,1.6568603515625,1.3431396484375,3,3,3h22c1.6568603515625,0,3-1.3431396484375,3-3v-14c0-1.6568603515625-1.3431396484375-3-3-3ZM37,34.99999999418651c0,1.102783203125-.89715576171875,2-2,2H13c-1.102783203125,0-2-.897216796875-2-2v-14c0-1.102783203125.897216796875-2,2-2h8.8629150390625l.22796630859375-.68377685546875.54412841796875-1.6324462890625c.1363525390625-.40899658203125.517578125-.68377685546875.94866943359375-.68377685546875h7.11700439453125c.43109130859375,0,.81231689453125.2747802734375.94866943359375.68377685546875l.544189453125,1.6324462890625.2279052734375.68377685546875h2.57855224609375c1.10284423828125,0,2,.897216796875,2,2v14Z" fill="#969696"/>
    <path d="M26.96893310546875,20.52197265043651c-4.41827392578125,0-8,3.58172607421875-8,8s3.58172607421875,8,8,8,8-3.58172607421875,8-8-3.58172607421875-8-8-8ZM26.96893310546875,35.52197265043651c-3.85980224609375,0-7-3.14019775390625-7-7s3.14019775390625-7,7-7,7,3.14019775390625,7,7-3.14019775390625,7-7,7Z" fill="#969696"/>
    <path d="M26.96893310546875,23.02197265043651c-3.03753662109375,0-5.5,2.46240234375-5.5,5.5,0,3.03753662109375,2.46246337890625,5.5,5.5,5.5,3.03759765625,0,5.5-2.46246337890625,5.5-5.5,0-3.03759765625-2.46240234375-5.5-5.5-5.5ZM25.41339111328125,28.52197265043651c-.859130859375,0-1.5555419921875-.69647216796875-1.5555419921875-1.5555419921875,0-.859130859375.6964111328125-1.55560302734375,1.5555419921875-1.55560302734375s1.5555419921875.69647216796875,1.5555419921875,1.55560302734375c0,.85906982421875-.6964111328125,1.5555419921875-1.5555419921875,1.5555419921875Z" fill="#969696"/>
  </g>
  <g opacity=".5">
    <path d="M9,21.999999994193786H3c-1.102783203125,0-2-.897216796875-2-2V5.999999994193786c0-1.102783203125.897216796875-2,2-2h8.8629150390625l.22796630859375-.68377685546875.54412841796875-1.6324462890625c.1363525390625-.40899658203125.517578125-.68377685546875.94866943359375-.68377685546875h7.11700439453125c.43109130859375,0,.81231689453125.2747802734375.94866943359375.68377685546875l.544189453125,1.6324462890625.2279052734375.68377685546875h2.57855224609375c1.10284423828125,0,2,.897216796875,2,2v8h1V5.999999994193786c0-1.6568603515625-1.3431396484375-3-3-3h-1.8577880859375l-.544189453125-1.6324462890625C22.3258056640625.550842279350036,21.5615234375-.000000005806214,20.70068359375-.000000005806214h-7.11700439453125C12.72283935546875-.000000005806214,11.95855712890625.550842279350036,11.68634033203125,1.367553705131286l-.54412841796875,1.6324462890625h-3.3316650390625c-.2913818359375-.59033203125-.893310546875-1-1.59625244140625-1h-1.4285888671875c-.70294189453125,0-1.30487060546875.40966796875-1.59625244140625,1h-.189453125c-1.6568603515625,0-3,1.3431396484375-3,3v14c0,1.6568603515625,1.3431396484375,3,3,3h6v-1Z" fill="#969696"/>
    <path d="M16.96893310546875,5.521972650443786c-4.41827392578125,0-8,3.58172607421875-8,8,0,1.66925048828125.512451171875,3.21820068359375,1.38690185546875,4.50054931640625.25006103515625-.22235107421875.51922607421875-.42266845703125.81927490234375-.577392578125-.76068115234375-1.11981201171875-1.2061767578125-2.4703369140625-1.2061767578125-3.92315673828125,0-3.85980224609375,3.14019775390625-7,7-7s7,3.14019775390625,7,7c0,.161376953125-.013427734375.3193359375-.02423095703125.47802734375h1.00006103515625c.0093994140625-.15899658203125.024169921875-.316650390625.024169921875-.47802734375,0-4.41827392578125-3.58172607421875-8-8-8Z" fill="#969696"/>
    <path d="M16.96893310546875,8.021972650443786c-3.03753662109375,0-5.5,2.46240234375-5.5,5.5,0,1.3062744140625.45745849609375,2.5045166015625,1.21820068359375,3.447998046875.520263671875-.6070556640625,1.27490234375-.969970703125,2.0985107421875-.969970703125h1.4287109375c.83935546875,0,1.61083984375.37109375,2.1318359375,1h2.07568359375l.3154296875-.94921875c.2794189453125-.83563232421875.90313720703125-1.47650146484375,1.67864990234375-1.80523681640625.03125-.23736572265625.052978515625-.4776611328125.052978515625-.72357177734375,0-3.03759765625-2.46240234375-5.5-5.5-5.5ZM15.41339111328125,13.521972650443786c-.859130859375,0-1.5555419921875-.69647216796875-1.5555419921875-1.5555419921875,0-.859130859375.6964111328125-1.55560302734375,1.5555419921875-1.55560302734375s1.5555419921875.69647216796875,1.5555419921875,1.55560302734375c0,.85906982421875-.6964111328125,1.5555419921875-1.5555419921875,1.5555419921875Z" fill="#969696"/>
  </g>
  <circle cx="8.41339111328125" cy="6.52197265043651" r="1.5" fill="#f33" opacity=".7"/>
  <circle cx="18.41339111328125" cy="21.52197265043651" r="1.5" fill="#f33"/>
</svg>